<svg xmlns="http://www.w3.org/2000/svg" width="21.942" height="20.331" viewBox="0 0 21.942 20.331"><g transform="translate(0 -0.5)"><path d="M19.831,1H2.111A1.611,1.611,0,0,0,.5,2.611V9.055a1.611,1.611,0,0,0,1.611,1.611h17.72a1.611,1.611,0,0,0,1.611-1.611V2.611A1.611,1.611,0,0,0,19.831,1Z" transform="translate(0)" fill="none" stroke="#f1e107" stroke-linecap="round" stroke-linejoin="round" stroke-width="1"/><path d="M3.805,5.111A.805.805,0,1,0,3,4.305.805.805,0,0,0,3.805,5.111Z" transform="translate(1.527 1.527)" fill="none" stroke="#f1e107" stroke-linecap="round" stroke-linejoin="round" stroke-width="1"/><path d="M7.5,4h5.638" transform="translate(4.277 1.833)" fill="none" stroke="#f1e107" stroke-linecap="round" stroke-linejoin="round" stroke-width="1"/><path d="M2.111,7A1.611,1.611,0,0,0,.5,8.611v6.444a1.611,1.611,0,0,0,1.611,1.611h17.72a1.611,1.611,0,0,0,1.611-1.611V8.611A1.611,1.611,0,0,0,19.831,7" transform="translate(0 3.666)" fill="none" stroke="#f1e107" stroke-linecap="round" stroke-linejoin="round" stroke-width="1"/><path d="M3.805,11.111A.805.805,0,1,0,3,10.305.805.805,0,0,0,3.805,11.111Z" transform="translate(1.527 5.193)" fill="none" stroke="#f1e107" stroke-linecap="round" stroke-linejoin="round" stroke-width="1"/><path d="M7.5,10h5.638" transform="translate(4.277 5.498)" fill="none" stroke="#f1e107" stroke-linecap="round" stroke-linejoin="round" stroke-width="1"/></g></svg>