<svg xmlns="http://www.w3.org/2000/svg" width="24.567" height="31.618" viewBox="0 0 24.567 31.618"><path d="M70.959,16H58.992A2.992,2.992,0,0,0,56,18.992v21.94a2.992,2.992,0,0,0,2.992,2.992H70.959a2.992,2.992,0,0,0,2.992-2.992V18.992A2.992,2.992,0,0,0,70.959,16ZM57.995,21.984H71.956V37.94H57.995Zm1-3.989H70.959a1,1,0,0,1,1,1v1H57.995v-1A1,1,0,0,1,58.992,17.995ZM70.959,41.929H58.992a1,1,0,0,1-1-1v-1H71.956v1A1,1,0,0,1,70.959,41.929Z" transform="matrix(0.966, -0.259, 0.259, 0.966, -58.233, 3.685)" fill="#f1e107"/></svg>