<svg xmlns="http://www.w3.org/2000/svg" width="1201.5" height="340.5" viewBox="0 0 1201.5 340.5"><g transform="translate(-464 -324)"><path d="M.2.2V339.8H1200.8V.2H.2M0,0H1201V340H0Z" transform="translate(464 324)" fill="#0ea5e9"/><path d="M.1,340H-.1V0H.1Z" transform="translate(488.5 324.5)" fill="#0ea5e9"/><path d="M.1,340H-.1V0H.1Z" transform="translate(509.5 324.5)" fill="#0ea5e9"/><path d="M.1,340H-.1V0H.1Z" transform="translate(530.5 324.5)" fill="#0ea5e9"/><path d="M.1,340H-.1V0H.1Z" transform="translate(551.5 324.5)" fill="#0ea5e9"/><path d="M.1,340H-.1V0H.1Z" transform="translate(572.5 324.5)" fill="#0ea5e9"/><path d="M.1,340H-.1V0H.1Z" transform="translate(593.5 324.5)" fill="#0ea5e9"/><path d="M.1,340H-.1V0H.1Z" transform="translate(614.5 324.5)" fill="#0ea5e9"/><path d="M.1,340H-.1V0H.1Z" transform="translate(635.5 324.5)" fill="#0ea5e9"/><path d="M.1,340H-.1V0H.1Z" transform="translate(656.5 324.5)" fill="#0ea5e9"/><path d="M.1,340H-.1V0H.1Z" transform="translate(677.5 324.5)" fill="#0ea5e9"/><path d="M.1,340H-.1V0H.1Z" transform="translate(698.5 324.5)" fill="#0ea5e9"/><path d="M.1,340H-.1V0H.1Z" transform="translate(719.5 324.5)" fill="#0ea5e9"/><path d="M.1,340H-.1V0H.1Z" transform="translate(740.5 324.5)" fill="#0ea5e9"/><path d="M.1,340H-.1V0H.1Z" transform="translate(761.5 324.5)" fill="#0ea5e9"/><path d="M.1,340H-.1V0H.1Z" transform="translate(782.5 324.5)" fill="#0ea5e9"/><path d="M.1,340H-.1V0H.1Z" transform="translate(803.5 324.5)" fill="#0ea5e9"/><path d="M.1,340H-.1V0H.1Z" transform="translate(824.5 324.5)" fill="#0ea5e9"/><path d="M.1,340H-.1V0H.1Z" transform="translate(845.5 324.5)" fill="#0ea5e9"/><path d="M.1,340H-.1V0H.1Z" transform="translate(866.5 324.5)" fill="#0ea5e9"/><path d="M.1,340H-.1V0H.1Z" transform="translate(887.5 324.5)" fill="#0ea5e9"/><path d="M.1,340H-.1V0H.1Z" transform="translate(908.5 324.5)" fill="#0ea5e9"/><path d="M.1,340H-.1V0H.1Z" transform="translate(929.5 324.5)" fill="#0ea5e9"/><path d="M.1,340H-.1V0H.1Z" transform="translate(950.5 324.5)" fill="#0ea5e9"/><path d="M.1,340H-.1V0H.1Z" transform="translate(971.5 324.5)" fill="#0ea5e9"/><path d="M.1,340H-.1V0H.1Z" transform="translate(992.5 324.5)" fill="#0ea5e9"/><path d="M.1,340H-.1V0H.1Z" transform="translate(1013.5 324.5)" fill="#0ea5e9"/><path d="M.1,340H-.1V0H.1Z" transform="translate(1034.5 324.5)" fill="#0ea5e9"/><path d="M.1,340H-.1V0H.1Z" transform="translate(1055.5 324.5)" fill="#0ea5e9"/><path d="M.1,340H-.1V0H.1Z" transform="translate(1076.5 324.5)" fill="#0ea5e9"/><path d="M.1,340H-.1V0H.1Z" transform="translate(1097.5 324.5)" fill="#0ea5e9"/><path d="M.1,340H-.1V0H.1Z" transform="translate(1118.5 324.5)" fill="#0ea5e9"/><path d="M.1,340H-.1V0H.1Z" transform="translate(1139.5 324.5)" fill="#0ea5e9"/><path d="M.1,340H-.1V0H.1Z" transform="translate(1160.5 324.5)" fill="#0ea5e9"/><path d="M.1,340H-.1V0H.1Z" transform="translate(1181.5 324.5)" fill="#0ea5e9"/><path d="M.1,340H-.1V0H.1Z" transform="translate(1202.5 324.5)" fill="#0ea5e9"/><path d="M.1,340H-.1V0H.1Z" transform="translate(1223.5 324.5)" fill="#0ea5e9"/><path d="M.1,340H-.1V0H.1Z" transform="translate(1244.5 324.5)" fill="#0ea5e9"/><path d="M.1,340H-.1V0H.1Z" transform="translate(1265.5 324.5)" fill="#0ea5e9"/><path d="M.1,340H-.1V0H.1Z" transform="translate(1286.5 324.5)" fill="#0ea5e9"/><path d="M.1,340H-.1V0H.1Z" transform="translate(1307.5 324.5)" fill="#0ea5e9"/><path d="M.1,340H-.1V0H.1Z" transform="translate(1328.5 324.5)" fill="#0ea5e9"/><path d="M.1,340H-.1V0H.1Z" transform="translate(1349.5 324.5)" fill="#0ea5e9"/><path d="M.1,340H-.1V0H.1Z" transform="translate(1370.5 324.5)" fill="#0ea5e9"/><path d="M.1,340H-.1V0H.1Z" transform="translate(1391.5 324.5)" fill="#0ea5e9"/><path d="M.1,340H-.1V0H.1Z" transform="translate(1412.5 324.5)" fill="#0ea5e9"/><path d="M.1,340H-.1V0H.1Z" transform="translate(1433.5 324.5)" fill="#0ea5e9"/><path d="M.1,340H-.1V0H.1Z" transform="translate(1454.5 324.5)" fill="#0ea5e9"/><path d="M.1,340H-.1V0H.1Z" transform="translate(1475.5 324.5)" fill="#0ea5e9"/><path d="M.1,340H-.1V0H.1Z" transform="translate(1496.5 324.5)" fill="#0ea5e9"/><path d="M.1,340H-.1V0H.1Z" transform="translate(1517.5 324.5)" fill="#0ea5e9"/><path d="M.1,340H-.1V0H.1Z" transform="translate(1538.5 324.5)" fill="#0ea5e9"/><path d="M.1,340H-.1V0H.1Z" transform="translate(1559.5 324.5)" fill="#0ea5e9"/><path d="M.1,340H-.1V0H.1Z" transform="translate(1580.5 324.5)" fill="#0ea5e9"/><path d="M.1,340H-.1V0H.1Z" transform="translate(1601.5 324.5)" fill="#0ea5e9"/><path d="M.1,340H-.1V0H.1Z" transform="translate(1622.5 324.5)" fill="#0ea5e9"/><path d="M.1,340H-.1V0H.1Z" transform="translate(1643.5 324.5)" fill="#0ea5e9"/><path d="M1201,.1H0V-.1H1201Z" transform="translate(464.5 344.315)" fill="#0ea5e9"/><path d="M1201,.1H0V-.1H1201Z" transform="translate(464.5 365.315)" fill="#0ea5e9"/><path d="M1201,.1H0V-.1H1201Z" transform="translate(464.5 386.315)" fill="#0ea5e9"/><path d="M1201,.1H0V-.1H1201Z" transform="translate(464.5 408.105)" fill="#0ea5e9"/><path d="M1201,.1H0V-.1H1201Z" transform="translate(464.5 429.368)" fill="#0ea5e9"/><path d="M1201,.1H0V-.1H1201Z" transform="translate(464.5 450.631)" fill="#0ea5e9"/><path d="M1201,.1H0V-.1H1201Z" transform="translate(464.5 471.894)" fill="#0ea5e9"/><path d="M1201,.1H0V-.1H1201Z" transform="translate(464.5 493.157)" fill="#0ea5e9"/><path d="M1201,.1H0V-.1H1201Z" transform="translate(464.5 514.421)" fill="#0ea5e9"/><path d="M1201,.1H0V-.1H1201Z" transform="translate(464.5 535.684)" fill="#0ea5e9"/><path d="M1201,.1H0V-.1H1201Z" transform="translate(464.5 556.947)" fill="#0ea5e9"/><path d="M1201,.1H0V-.1H1201Z" transform="translate(464.5 578.21)" fill="#0ea5e9"/><path d="M1201,.1H0V-.1H1201Z" transform="translate(464.5 600)" fill="#0ea5e9"/><path d="M1201,.1H0V-.1H1201Z" transform="translate(464.5 621)" fill="#0ea5e9"/><path d="M1201,.1H0V-.1H1201Z" transform="translate(464.5 642)" fill="#0ea5e9"/></g></svg>