<svg xmlns="http://www.w3.org/2000/svg" width="24" height="24" viewBox="0 0 24 24"><path d="M2.6,7.81,7.508,21.264A10.3,10.3,0,0,1,2.6,7.81Zm16.352,3.67A5.421,5.421,0,0,0,18.1,8.641a4.829,4.829,0,0,1-1.011-2.415,1.769,1.769,0,0,1,1.862-1.819A10.293,10.293,0,0,0,3.4,6.346,28.439,28.439,0,0,0,6.8,6.228a.425.425,0,0,1,.066.847s-.558.065-1.178.1l3.749,11.15,2.253-6.756-1.6-4.394c-.555-.033-1.08-.1-1.08-.1a.425.425,0,0,1,.065-.848,29.152,29.152,0,0,0,5.455,0,.425.425,0,0,1,.066.848s-.559.065-1.178.1l3.72,11.065,1.027-3.431a12.461,12.461,0,0,0,.783-3.327ZM12.181,12.9,9.092,21.875a10.306,10.306,0,0,0,6.326-.164c-.086-.139-3.181-8.657-3.237-8.811Zm8.852-5.839a9.239,9.239,0,0,1-.713,4.746L17.175,20.9A10.3,10.3,0,0,0,21.033,7.061ZM24,12A12,12,0,1,1,12,0,12.014,12.014,0,0,1,24,12Zm-.55,0A11.45,11.45,0,1,0,12,23.45,11.464,11.464,0,0,0,23.45,12Z" fill="#f1e107"/></svg>