<svg xmlns="http://www.w3.org/2000/svg" width="28" height="28" viewBox="0 0 28 28"><g transform="translate(-618 -382)"><g transform="translate(618 382)"><path d="M11.217.262,18.1,3.319c1.983.875,1.983,2.322,0,3.2L11.217,9.572a3.99,3.99,0,0,1-2.847,0L1.488,6.516c-1.983-.875-1.983-2.322,0-3.2L8.371.262A3.99,3.99,0,0,1,11.217.262Z" transform="translate(3.961 3.144)" fill="none" stroke="#f1e107" stroke-linecap="round" stroke-linejoin="round" stroke-width="1.5"/><path d="M0,0A2.989,2.989,0,0,0,1.633,2.508L9.555,6.032a2.319,2.319,0,0,0,1.89,0l7.922-3.523A2.989,2.989,0,0,0,21,0" transform="translate(3.5 12.833)" fill="none" stroke="#f1e107" stroke-linecap="round" stroke-linejoin="round" stroke-width="1.5"/><path d="M0,0A2.75,2.75,0,0,0,1.633,2.508L9.555,6.032a2.319,2.319,0,0,0,1.89,0l7.922-3.523A2.75,2.75,0,0,0,21,0" transform="translate(3.5 18.667)" fill="none" stroke="#f1e107" stroke-linecap="round" stroke-linejoin="round" stroke-width="1.5"/><path d="M0,0H28V28H0Z" fill="none" opacity="0"/></g></g></svg>