<svg xmlns="http://www.w3.org/2000/svg" width="27.295" height="27.295" viewBox="0 0 27.295 27.295"><g transform="translate(-556 -252)"><g transform="translate(556 252)"><path d="M2.039,0A4.8,4.8,0,0,0,.2,1.626a1.169,1.169,0,0,0,0,1.3A4.8,4.8,0,0,0,2.039,4.549" transform="translate(8.197 14.785)" fill="none" stroke="#f1e107" stroke-linecap="round" stroke-linejoin="round" stroke-width="1.5"/><path d="M0,0A4.8,4.8,0,0,1,1.842,1.626a1.169,1.169,0,0,1,0,1.3A4.8,4.8,0,0,1,0,4.549" transform="translate(17.298 14.785)" fill="none" stroke="#f1e107" stroke-linecap="round" stroke-linejoin="round" stroke-width="1.5"/><path d="M7.961,22.746h6.824c5.686,0,7.961-2.275,7.961-7.961V7.961C22.746,2.275,20.471,0,14.785,0H7.961C2.275,0,0,2.275,0,7.961v6.824C0,20.471,2.275,22.746,7.961,22.746Z" transform="translate(2.275 2.275)" fill="none" stroke="#f1e107" stroke-linecap="round" stroke-linejoin="round" stroke-width="1.5"/><path d="M0,.011,21.859,0" transform="translate(2.536 9.098)" fill="none" stroke="#f1e107" stroke-linecap="round" stroke-linejoin="round" stroke-width="1.5"/><path d="M0,0H27.295V27.295H0Z" fill="none" opacity="0"/></g></g></svg>